<svg xmlns="http://www.w3.org/2000/svg" viewBox="0 0 720 420" role="img" aria-label="Expected Credit Loss Computation concept diagram"><rect width="720" height="420" rx="28" fill="#f6f0e7"/><text x="58" y="66" font-family="Arial, sans-serif" font-size="25" font-weight="700" fill="#1f2633">Expected Credit Loss Computation</text><g fill="none" stroke="#315e7d" stroke-width="7" stroke-linecap="round" stroke-linejoin="round"><path d="M112 292 H620"/><path d="M150 292 V182 M270 292 V132 M390 292 V214 M510 292 V160"/><path d="M150 182 C236 116 302 128 390 214 S510 160 570 126"/><rect x="94" y="314" width="150" height="54" rx="16"/><rect x="284" y="314" width="150" height="54" rx="16"/><rect x="474" y="314" width="150" height="54" rx="16"/></g><g fill="#da5f3f"><circle cx="150" cy="182" r="18"/><circle cx="270" cy="132" r="18"/><circle cx="390" cy="214" r="18"/><circle cx="510" cy="160" r="18"/></g><g font-family="Arial, sans-serif" font-size="16" font-weight="700" fill="#1f2633"><text x="126" y="349">Scenarios</text><text x="319" y="349">Segments</text><text x="516" y="349">SOX report</text></g></svg>
