<svg xmlns="http://www.w3.org/2000/svg" viewBox="0 0 720 420" role="img" aria-label="Speech Processing Benchmarking concept diagram"><rect width="720" height="420" rx="28" fill="#f4f0ff"/><text x="58" y="66" font-family="Arial, sans-serif" font-size="25" font-weight="700" fill="#1f2633">Speech Processing Benchmarking</text><g fill="none" stroke="#5f4a8b" stroke-width="7" stroke-linecap="round" stroke-linejoin="round"><path d="M96 218 C122 150 156 150 182 218 S242 286 268 218 S328 150 354 218 S414 286 440 218 S500 150 526 218 S586 286 612 218"/><rect x="118" y="300" width="132" height="58" rx="17"/><rect x="294" y="300" width="132" height="58" rx="17"/><rect x="470" y="300" width="132" height="58" rx="17"/><path d="M184 300 V258 M360 300 V258 M536 300 V258"/></g><g fill="#2a8c82"><circle cx="184" cy="258" r="16"/><circle cx="360" cy="258" r="16"/><circle cx="536" cy="258" r="16"/></g><g font-family="Arial, sans-serif" font-size="16" font-weight="700" fill="#1f2633"><text x="147" y="335">Audio</text><text x="318" y="335">Diarize</text><text x="501" y="335">Benchmark</text></g></svg>
