<svg xmlns="http://www.w3.org/2000/svg" viewBox="0 0 720 420" role="img" aria-label="Modulai Graph ML Fraud Detection concept diagram"><rect width="720" height="420" rx="28" fill="#f6f0e7"/><text x="58" y="66" font-family="Arial, sans-serif" font-size="25" font-weight="700" fill="#1f2633">Modulai Graph ML Fraud Detection</text><g fill="none" stroke="#315e7d" stroke-width="7" stroke-linecap="round" stroke-linejoin="round"><path d="M145 255 L250 156 L370 234 L493 148 L588 260 M250 156 L493 148 M145 255 L370 234 M370 234 L588 260"/><rect x="86" y="300" width="164" height="60" rx="18"/><rect x="278" y="300" width="164" height="60" rx="18"/><rect x="470" y="300" width="164" height="60" rx="18"/></g><g fill="#da5f3f"><circle cx="145" cy="255" r="22"/><circle cx="250" cy="156" r="22"/><circle cx="370" cy="234" r="22"/><circle cx="493" cy="148" r="22"/><circle cx="588" cy="260" r="22"/></g><g font-family="Arial, sans-serif" font-size="16" font-weight="700" fill="#1f2633"><text x="120" y="337">Graph features</text><text x="312" y="337">Selection</text><text x="506" y="337">Fraud model</text></g></svg>
